<svg width="32" height="32" viewBox="0 0 32 32" fill="none" xmlns="http://www.w3.org/2000/svg">
<path d="M14.9531 7.35938L15.9844 6.32812C16.2031 6.10938 16.4688 6 16.7812 6C17.0938 6 17.3594 6.10938 17.5781 6.32812L26.6719 15.4219C26.8906 15.6406 27 15.9062 27 16.2188C27 16.5312 26.8906 16.7969 26.6719 17.0156L17.5781 26.1094C17.3594 26.3281 17.0938 26.4375 16.7812 26.4375C16.4688 26.4375 16.2031 26.3281 15.9844 26.1094L14.9531 25.0781C14.7031 24.8594 14.5781 24.5938 14.5781 24.2812C14.6094 23.9688 14.7344 23.7031 14.9531 23.4844L20.5781 18.0938H7.125C6.8125 18.0938 6.54688 17.9844 6.32812 17.7656C6.10938 17.5469 6 17.2812 6 16.9688V15.4688C6 15.1562 6.10938 14.8906 6.32812 14.6719C6.54688 14.4531 6.8125 14.3438 7.125 14.3438H20.5781L14.9531 8.95312C14.7344 8.73438 14.6094 8.46875 14.5781 8.15625C14.5781 7.84375 14.7031 7.57812 14.9531 7.35938Z" fill="black"/>
</svg>
