<svg width="32" height="32" viewBox="0 0 32 32" fill="none" xmlns="http://www.w3.org/2000/svg">
<path d="M7.5 25.75C7.5 27.0156 8.48438 28 9.75 28H23.25C24.4688 28 25.5 27.0156 25.5 25.75V10H7.5V25.75ZM20.25 13.75C20.25 13.375 20.5781 13 21 13C21.375 13 21.75 13.375 21.75 13.75V24.25C21.75 24.6719 21.375 25 21 25C20.5781 25 20.25 24.6719 20.25 24.25V13.75ZM15.75 13.75C15.75 13.375 16.0781 13 16.5 13C16.875 13 17.25 13.375 17.25 13.75V24.25C17.25 24.6719 16.875 25 16.5 25C16.0781 25 15.75 24.6719 15.75 24.25V13.75ZM11.25 13.75C11.25 13.375 11.5781 13 12 13C12.375 13 12.75 13.375 12.75 13.75V24.25C12.75 24.6719 12.375 25 12 25C11.5781 25 11.25 24.6719 11.25 24.25V13.75ZM26.25 5.5H20.625L20.1562 4.65625C19.9688 4.28125 19.5938 4 19.1719 4H13.7812C13.3594 4 12.9844 4.28125 12.7969 4.65625L12.375 5.5H6.75C6.32812 5.5 6 5.875 6 6.25V7.75C6 8.17188 6.32812 8.5 6.75 8.5H26.25C26.625 8.5 27 8.17188 27 7.75V6.25C27 5.875 26.625 5.5 26.25 5.5Z" fill="#1C74DC"/>
</svg>
