<svg width="32" height="32" viewBox="0 0 32 32" fill="none" xmlns="http://www.w3.org/2000/svg">
<path d="M21.8906 7.89062L26.1094 12.1094C26.2031 12.2031 26.25 12.3125 26.25 12.4375C26.25 12.5625 26.2031 12.6719 26.1094 12.7656L15.8438 23.0312L11.5312 23.5C11.2188 23.5312 10.9531 23.4531 10.7344 23.2656C10.5469 23.0469 10.4688 22.7812 10.5 22.4688L10.9688 18.1562L21.2344 7.89062C21.3281 7.79688 21.4375 7.75 21.5625 7.75C21.6875 7.75 21.7969 7.79688 21.8906 7.89062ZM29.4844 6.8125L27.1875 4.51562C26.8125 4.17188 26.375 4 25.875 4C25.375 4 24.9531 4.17188 24.6094 4.51562L22.9219 6.20312C22.8281 6.29688 22.7812 6.40625 22.7812 6.53125C22.7812 6.65625 22.8281 6.76562 22.9219 6.85938L27.1406 11.0781C27.2344 11.1719 27.3438 11.2188 27.4688 11.2188C27.5938 11.2188 27.7031 11.1719 27.7969 11.0781L29.4844 9.39062C29.8281 9.04688 30 8.625 30 8.125C30 7.625 29.8281 7.1875 29.4844 6.8125ZM21 20.2188V25H6V10H16.7812C16.9375 10 17.0625 9.95312 17.1562 9.85938L19.0312 7.9375C19.2188 7.78125 19.2656 7.59375 19.1719 7.375C19.0781 7.125 18.9062 7 18.6562 7H5.25C4.625 7 4.09375 7.21875 3.65625 7.65625C3.21875 8.09375 3 8.625 3 9.25V25.75C3 26.375 3.21875 26.9062 3.65625 27.3438C4.09375 27.7812 4.625 28 5.25 28H21.75C22.375 28 22.9062 27.7812 23.3438 27.3438C23.7812 26.9062 24 26.375 24 25.75V18.3438C24 18.0938 23.875 17.9219 23.625 17.8281C23.4062 17.7344 23.2188 17.7812 23.0625 17.9688L21.1875 19.8438C21.0625 19.9375 21 20.0625 21 20.2188Z" fill="white"/>
</svg>
