<svg width="32" height="32" viewBox="0 0 32 32" fill="none" xmlns="http://www.w3.org/2000/svg">
<path d="M10.4375 14.9375L18.9375 6.4375C19.2292 6.14583 19.5833 6 20 6C20.4167 6 20.7708 6.14583 21.0625 6.4375L22.4375 7.875C22.7292 8.16667 22.875 8.52083 22.875 8.9375C22.875 9.35417 22.7292 9.6875 22.4375 9.9375L16.4375 16L22.4375 22C22.7292 22.2917 22.875 22.6458 22.875 23.0625C22.875 23.4792 22.7292 23.8333 22.4375 24.125L21.0625 25.5625C20.7708 25.8542 20.4167 26 20 26C19.5833 26 19.2292 25.8542 18.9375 25.5625L10.4375 17.0625C10.1458 16.7708 10 16.4167 10 16C10 15.5833 10.1458 15.2292 10.4375 14.9375Z" fill="white"/>
</svg>
