<svg width="32" height="32" viewBox="0 0 32 32" fill="none" xmlns="http://www.w3.org/2000/svg">
<path d="M25.029 11.8482C25.029 11.5413 24.9062 11.2344 24.6853 11.0134L23.0156 9.34375C22.7946 9.12277 22.4877 9 22.1808 9C21.8739 9 21.567 9.12277 21.346 9.34375L13.2924 17.4096L9.68304 13.7879C9.46205 13.567 9.15513 13.4442 8.84821 13.4442C8.54129 13.4442 8.23438 13.567 8.01339 13.7879L6.34375 15.4576C6.12277 15.6786 6 15.9855 6 16.2924C6 16.5993 6.12277 16.9063 6.34375 17.1272L10.7879 21.5714L12.4576 23.2411C12.6786 23.4621 12.9855 23.5848 13.2924 23.5848C13.5993 23.5848 13.9063 23.4621 14.1272 23.2411L15.7969 21.5714L24.6853 12.683C24.9062 12.4621 25.029 12.1551 25.029 11.8482Z" fill="black"/>
<path d="M25.029 11.8482C25.029 11.5413 24.9062 11.2344 24.6853 11.0134L23.0156 9.34375C22.7946 9.12277 22.4877 9 22.1808 9C21.8739 9 21.567 9.12277 21.346 9.34375L13.2924 17.4096L9.68304 13.7879C9.46205 13.567 9.15513 13.4442 8.84821 13.4442C8.54129 13.4442 8.23438 13.567 8.01339 13.7879L6.34375 15.4576C6.12277 15.6786 6 15.9855 6 16.2924C6 16.5993 6.12277 16.9063 6.34375 17.1272L10.7879 21.5714L12.4576 23.2411C12.6786 23.4621 12.9855 23.5848 13.2924 23.5848C13.5993 23.5848 13.9063 23.4621 14.1272 23.2411L15.7969 21.5714L24.6853 12.683C24.9062 12.4621 25.029 12.1551 25.029 11.8482Z" fill="black"/>
</svg>
